<mxfile host="app.diagrams.net" modified="2022-12-16T06:38:02.283Z" agent="5.0 (Macintosh; Intel Mac OS X 10_15_7) AppleWebKit/537.36 (KHTML, like Gecko) Chrome/108.0.0.0 Safari/537.36" etag="L7JihsMILd-Pckuw9ZPR" version="20.6.0" type="github">
  <diagram id="3228e29e-7158-1315-38df-8450db1d8a1d" name="Page-1">
    <mxGraphModel dx="1167" dy="876" grid="0" gridSize="10" guides="1" tooltips="1" connect="1" arrows="1" fold="1" page="1" pageScale="1" pageWidth="1000" pageHeight="700" background="#EFF1F3" math="0" shadow="0">
      <root>
        <mxCell id="0" />
        <mxCell id="1" parent="0" />
        <mxCell id="XesL2w0taDe7yGw5XreT-9" value="" style="rounded=1;whiteSpace=wrap;html=1;fillColor=none;strokeWidth=5;dashed=1;arcSize=10;strokeColor=#6DB5A8;" parent="1" vertex="1">
          <mxGeometry x="162" y="85" width="676" height="245" as="geometry" />
        </mxCell>
        <mxCell id="XesL2w0taDe7yGw5XreT-6" value="" style="rounded=1;whiteSpace=wrap;html=1;fillColor=none;strokeWidth=5;dashed=1;arcSize=10;strokeColor=#4A919B;" parent="1" vertex="1">
          <mxGeometry x="162" y="358" width="676" height="257" as="geometry" />
        </mxCell>
        <mxCell id="XesL2w0taDe7yGw5XreT-3" value="&lt;font style=&quot;font-size: 29px;&quot;&gt;socket&lt;/font&gt;" style="rounded=1;whiteSpace=wrap;html=1;strokeColor=none;fillColor=#6DB5A8;" parent="1" vertex="1">
          <mxGeometry x="162" y="308" width="676" height="60" as="geometry" />
        </mxCell>
        <mxCell id="XesL2w0taDe7yGw5XreT-10" style="edgeStyle=orthogonalEdgeStyle;rounded=1;orthogonalLoop=1;jettySize=auto;html=1;exitX=0.5;exitY=1;exitDx=0;exitDy=0;entryX=0.5;entryY=0;entryDx=0;entryDy=0;strokeColor=#4A919B;strokeWidth=3;fontSize=34;" parent="1" target="XesL2w0taDe7yGw5XreT-5" edge="1">
          <mxGeometry relative="1" as="geometry">
            <mxPoint x="366" y="228" as="sourcePoint" />
          </mxGeometry>
        </mxCell>
        <mxCell id="XesL2w0taDe7yGw5XreT-8" style="edgeStyle=orthogonalEdgeStyle;rounded=1;orthogonalLoop=1;jettySize=auto;html=1;exitX=1;exitY=0.5;exitDx=0;exitDy=0;entryX=0;entryY=0.5;entryDx=0;entryDy=0;fontSize=29;strokeWidth=3;strokeColor=#4A919B;" parent="1" source="XesL2w0taDe7yGw5XreT-5" target="XesL2w0taDe7yGw5XreT-7" edge="1">
          <mxGeometry relative="1" as="geometry" />
        </mxCell>
        <mxCell id="XesL2w0taDe7yGw5XreT-5" value="" style="shape=image;verticalLabelPosition=bottom;verticalAlign=top;imageAspect=0;aspect=fixed;image=data:image/svg+xml,PHN2ZyB4bWxuczp4bGluaz0iaHR0cDovL3d3dy53My5vcmcvMTk5OS94bGluayIgeG1sbnM9Imh0dHA6Ly93d3cudzMub3JnLzIwMDAvc3ZnIiBoZWlnaHQ9IjIwMCIgd2lkdGg9IjIwMCIgdmVyc2lvbj0iMS4xIiB2aWV3Qm94PSIwIDAgMTAyNCAxMDI0IiBjbGFzcz0iaWNvbiI+PHBhdGggZmlsbD0iIzRBOTE5QiIgZD0iTTg4Ni43IDI0Ny42TDcxMy40IDczLjRjLTYtNi0xNC4yLTkuNC0yMi43LTkuNEgxOTJjLTM1LjMgMC02NCAyOC43LTY0IDY0djc2OGMwIDM1LjMgMjguNyA2NCA2NCA2NGg2NDBjMzUuMyAwIDY0LTI4LjcgNjQtNjRWMjcwLjJjMC04LjUtMy4zLTE2LjYtOS4zLTIyLjZ6TTgzMiA4NjRjMCAxNy43LTE0LjMgMzItMzIgMzJIMjI0Yy0xNy43IDAtMzItMTQuMy0zMi0zMlYxNjBjMC0xNy43IDE0LjMtMzIgMzItMzJoMzg0djE2MGMwIDM1LjMgMjguNyA2NCA2NCA2NGgxNjB2NTEyek03MDQgMjg4Yy0xNy43IDAtMzItMTQuMy0zMi0zMlYxMjhsMTYwIDE2MEg3MDR6Ii8+PHBhdGggZmlsbD0iIzRBOTE5QiIgZD0iTTY3MSA2NzJIMjg3Yy0xNy43IDAtMzIgMTQuMy0zMiAzMnMxNC4zIDMyIDMyIDMyaDM4NGMxNy43IDAgMzItMTQuMyAzMi0zMnMtMTQuMy0zMi0zMi0zMnpNMjg3IDQ4MGMtMTcuNyAwLTMyIDE0LjMtMzIgMzJzMTQuMyAzMiAzMiAzMmgzODRjMTcuNyAwIDMyLTE0LjMgMzItMzJzLTE0LjMtMzItMzItMzJIMjg3ek0yODcgMzUyaDE5MmMxNy43IDAgMzItMTQuMyAzMi0zMnMtMTQuMy0zMi0zMi0zMkgyODdjLTE3LjcgMC0zMiAxNC4zLTMyIDMyczE0LjMgMzIgMzIgMzJ6Ii8+PC9zdmc+;fontSize=29;" parent="1" vertex="1">
          <mxGeometry x="302" y="454" width="128" height="128" as="geometry" />
        </mxCell>
        <mxCell id="XesL2w0taDe7yGw5XreT-7" value="&lt;font style=&quot;font-size: 34px;&quot; color=&quot;#eff1f3&quot;&gt;sock&lt;/font&gt;" style="rounded=1;whiteSpace=wrap;html=1;fillColor=#4A919B;strokeColor=none;arcSize=20;" parent="1" vertex="1">
          <mxGeometry x="561" y="478.75" width="169" height="78.5" as="geometry" />
        </mxCell>
        <mxCell id="XesL2w0taDe7yGw5XreT-12" value="" style="shape=image;verticalLabelPosition=bottom;labelBackgroundColor=default;verticalAlign=top;aspect=fixed;imageAspect=0;image=data:image/svg+xml,PHN2ZyB4bWxuczp4bGluaz0iaHR0cDovL3d3dy53My5vcmcvMTk5OS94bGluayIgeG1sbnM9Imh0dHA6Ly93d3cudzMub3JnLzIwMDAvc3ZnIiBoZWlnaHQ9IjEyOCIgd2lkdGg9IjEyOCIgdmVyc2lvbj0iMS4xIiB2aWV3Qm94PSIwIDAgMTAyNCAxMDI0IiBjbGFzcz0iaWNvbiI+PHBhdGggZmlsbD0iIzRBOTE5QiIgZD0iTTUwOC44IDM2Mi40Yy00LjkgMC05LjEtMy42LTkuOS04LjUtMC42LTMuOS0xMy43LTk2LjYgMzMuMy0xNTEgMjEuNi0yNS4xIDUyLjMtMzcuOCA5MS4xLTM3LjggNS41IDAgMTAgNC41IDEwIDEwcy00LjUgMTAtMTAgMTBjLTMyLjcgMC01OC4zIDEwLjQtNzUuOSAzMC44LTQxIDQ3LjQtMjguOCAxMzQuMi0yOC43IDEzNSAwLjggNS41LTMgMTAuNS04LjQgMTEuMy0wLjUgMC4xLTEgMC4yLTEuNSAwLjJ6Ii8+PHBhdGggZmlsbD0iIzRBOTE5QiIgZD0iTTgzNyA4NTguOWMtMTEuOSAwLTIzLjgtMi4yLTM1LjEtNi42LTIyLTguNS00MC4xLTI0LjctNTEuMS00NS42bC00NS04NS44Yy0xMy40LTI1LjYtMzkuNy00MS40LTY4LjUtNDEuNEgzODYuOGMtMjguOSAwLTU1LjEgMTUuOS02OC41IDQxLjRsLTQ1IDg1LjhjLTExIDIwLjktMjkuMSAzNy4xLTUxLjEgNDUuNnMtNDYuMyA4LjgtNjguNSAwLjdjLTI0LjUtOC45LTQ0LTI2LjgtNTUtNTAuNC0xMS0yMy42LTEyLjItNTAtMy4zLTc0LjVsMTEzLjctMzEyLjNjMTIuOC0zNS4yIDQ1LjEtNjAuMiA4Mi40LTYzLjcgNS41LTAuNSAxMS0wLjIgMTYuNiAwLjhsMTE0IDIxLjRjNS43IDEuMSAxMS40IDEuNiAxNy4yIDEuNmgxNDUuNWM1LjggMCAxMS41LTAuNSAxNy4yLTEuNmwxMTQtMjEuNGM1LjUtMSAxMS4xLTEuMyAxNi42LTAuOCAzNy4yIDMuNSA2OS42IDI4LjUgODIuNCA2My43bDExMy43IDMxMi4zYzguOSAyNC41IDcuNyA1MC45LTMuMyA3NC41cy0zMC41IDQxLjUtNTUgNTAuNGMtMTAuOCA0LTIyLjEgNS45LTMzLjQgNS45ek0zODYuOCA2NTkuNmgyNTAuNGMzNi4zIDAgNjkuNCAyMCA4Ni4yIDUyLjFsNDUgODUuOGMxNy45IDM0LjEgNTguOCA0OS45IDk1IDM2LjggMTkuNC03LjEgMzQuOS0yMS4zIDQzLjctNDAgOC43LTE4LjcgOS43LTM5LjggMi42LTU5LjJMNzk2LjEgNDIyLjdjLTEwLjItMjgtMzUuOS00Ny44LTY1LjUtNTAuNi0zLjYtMC4zLTcuMy0wLjItMTEgMC41bC0xMTQgMjEuNGMtNi45IDEuMy0xMy45IDEuOS0yMC45IDEuOUg0MzkuMmMtNyAwLTE0LTAuNy0yMC45LTEuOWwtMTE0LTIxLjRjLTMuNy0wLjctNy40LTAuOS0xMS0wLjUtMjkuNiAyLjgtNTUuMyAyMi42LTY1LjUgNTAuNkwxMTQuMiA3MzVjLTcuMSAxOS40LTYuMiA0MC41IDIuNiA1OS4yIDguNyAxOC43IDI0LjMgMzMgNDMuNyA0MCAzNi4yIDEzLjIgNzcuMS0yLjYgOTUtMzYuOGw0NS04NS44YzE2LjktMzIgNTAtNTIgODYuMy01MnoiLz48cGF0aCBmaWxsPSIjNEE5MTlCIiBkPSJNNjkzLjQgNDgxLjJjLTE4LjMgMC0zMy4yLTE0LjktMzMuMi0zMy4yczE0LjktMzMuMiAzMy4yLTMzLjIgMzMuMiAxNC45IDMzLjIgMzMuMi0xNC45IDMzLjItMzMuMiAzMy4yeiBtMC00Ni41Yy03LjMgMC0xMy4yIDUuOS0xMy4yIDEzLjIgMCA3LjMgNS45IDEzLjIgMTMuMiAxMy4yczEzLjItNS45IDEzLjItMTMuMmMwLTcuMi01LjktMTMuMi0xMy4yLTEzLjJ6TTc1Ni40IDU0NC4yYy0xOC4zIDAtMzMuMi0xNC45LTMzLjItMzMuMnMxNC45LTMzLjIgMzMuMi0zMy4yIDMzLjIgMTQuOSAzMy4yIDMzLjItMTQuOCAzMy4yLTMzLjIgMzMuMnogbTAtNDYuNGMtNy4zIDAtMTMuMiA1LjktMTMuMiAxMy4yIDAgNy4zIDUuOSAxMy4yIDEzLjIgMTMuMnMxMy4yLTUuOSAxMy4yLTEzLjJjMC4xLTcuMy01LjktMTMuMi0xMy4yLTEzLjJ6TTYzMC40IDU0NC4yYy0xOC4zIDAtMzMuMi0xNC45LTMzLjItMzMuMnMxNC45LTMzLjIgMzMuMi0zMy4yIDMzLjIgMTQuOSAzMy4yIDMzLjItMTQuOSAzMy4yLTMzLjIgMzMuMnogbTAtNDYuNGMtNy4zIDAtMTMuMiA1LjktMTMuMiAxMy4yIDAgNy4zIDUuOSAxMy4yIDEzLjIgMTMuMnMxMy4yLTUuOSAxMy4yLTEzLjJjMC03LjMtNS45LTEzLjItMTMuMi0xMy4yek02OTMuNCA2MDcuM2MtMTguMyAwLTMzLjItMTQuOS0zMy4yLTMzLjJzMTQuOS0zMy4yIDMzLjItMzMuMiAzMy4yIDE0LjkgMzMuMiAzMy4yLTE0LjkgMzMuMi0zMy4yIDMzLjJ6IG0wLTQ2LjVjLTcuMyAwLTEzLjIgNS45LTEzLjIgMTMuMiAwIDcuMyA1LjkgMTMuMiAxMy4yIDEzLjJzMTMuMi01LjkgMTMuMi0xMy4yYzAtNy4zLTUuOS0xMy4yLTEzLjItMTMuMnpNNTgzLjYgMzk2LjFjLTUuNSAwLTEwLTQuNS0xMC0xMHYtMjEuMkg0NDhWMzg2YzAgNS41LTQuNSAxMC0xMCAxMHMtMTAtNC41LTEwLTEwdi0yMS4yYzAtMTEgOS0yMCAyMC0yMGgxMjUuNmMxMSAwIDIwIDkgMjAgMjBWMzg2YzAgNS42LTQuNSAxMC4xLTEwIDEwLjF6Ii8+PHBhdGggZmlsbD0iIzRBOTE5QiIgZD0iTTM4NiA2MDguM2gtNjAuOGMtMTAuNCAwLTE4LjktOC41LTE4LjktMTguOXYtMjcuN2gtMjcuN2MtMTAuNCAwLTE4LjktOC41LTE4LjktMTguOVY0ODJjMC0xMC40IDguNS0xOC45IDE4LjktMTguOWgyNy43di0yNy43YzAtMTAuNCA4LjUtMTguOSAxOC45LTE4LjlIMzg2YzEwLjQgMCAxOC45IDguNSAxOC45IDE4Ljl2MjcuN2gyNy43YzEwLjQgMCAxOC45IDguNSAxOC45IDE4Ljl2NjAuOGMwIDEwLjQtOC41IDE4LjktMTguOSAxOC45aC0yNy43djI3LjdjMCAxMC40LTguNSAxOC45LTE4LjkgMTguOXogbS01OS43LTIwaDU4LjV2LTI3LjdjMC0xMC40IDguNS0xOC45IDE4LjktMTguOWgyNy43di01OC41aC0yNy43Yy0xMC40IDAtMTguOS04LjUtMTguOS0xOC45di0yNy43aC01OC41djI3LjdjMCAxMC40LTguNSAxOC45LTE4LjkgMTguOWgtMjcuN3Y1OC41aDI3LjdjMTAuNCAwIDE4LjkgOC41IDE4LjkgMTguOXYyNy43eiBtMTA2LjMtMTA1LjF6Ii8+PHBhdGggZmlsbD0iIzRBOTE5QiIgZD0iTTUwOC44IDM2Mi40Yy00LjkgMC05LjEtMy42LTkuOS04LjUtMC42LTMuOS0xMy43LTk2LjYgMzMuMy0xNTEgMjEuNi0yNS4xIDUyLjMtMzcuOCA5MS4xLTM3LjggNS41IDAgMTAgNC41IDEwIDEwcy00LjUgMTAtMTAgMTBjLTMyLjcgMC01OC4zIDEwLjQtNzUuOSAzMC44LTQxIDQ3LjQtMjguOCAxMzQuMi0yOC43IDEzNSAwLjggNS41LTMgMTAuNS04LjQgMTEuMy0wLjUgMC4xLTEgMC4yLTEuNSAwLjJ6Ii8+PHBhdGggZmlsbD0iIzRBOTE5QiIgZD0iTTgzNyA4NTguOWMtMTEuOSAwLTIzLjgtMi4yLTM1LjEtNi42LTIyLTguNS00MC4xLTI0LjctNTEuMS00NS42bC00NS04NS44Yy0xMy40LTI1LjYtMzkuNy00MS40LTY4LjUtNDEuNEgzODYuOGMtMjguOSAwLTU1LjEgMTUuOS02OC41IDQxLjRsLTQ1IDg1LjhjLTExIDIwLjktMjkuMSAzNy4xLTUxLjEgNDUuNnMtNDYuMyA4LjgtNjguNSAwLjdjLTI0LjUtOC45LTQ0LTI2LjgtNTUtNTAuNC0xMS0yMy42LTEyLjItNTAtMy4zLTc0LjVsMTEzLjctMzEyLjNjMTIuOC0zNS4yIDQ1LjEtNjAuMiA4Mi40LTYzLjcgNS41LTAuNSAxMS0wLjIgMTYuNiAwLjhsMTE0IDIxLjRjNS43IDEuMSAxMS40IDEuNiAxNy4yIDEuNmgxNDUuNWM1LjggMCAxMS41LTAuNSAxNy4yLTEuNmwxMTQtMjEuNGM1LjUtMSAxMS4xLTEuMyAxNi42LTAuOCAzNy4yIDMuNSA2OS42IDI4LjUgODIuNCA2My43bDExMy43IDMxMi4zYzguOSAyNC41IDcuNyA1MC45LTMuMyA3NC41cy0zMC41IDQxLjUtNTUgNTAuNGMtMTAuOCA0LTIyLjEgNS45LTMzLjQgNS45ek0zODYuOCA2NTkuNmgyNTAuNGMzNi4zIDAgNjkuNCAyMCA4Ni4yIDUyLjFsNDUgODUuOGMxNy45IDM0LjEgNTguOCA0OS45IDk1IDM2LjggMTkuNC03LjEgMzQuOS0yMS4zIDQzLjctNDAgOC43LTE4LjcgOS43LTM5LjggMi42LTU5LjJMNzk2LjEgNDIyLjdjLTEwLjItMjgtMzUuOS00Ny44LTY1LjUtNTAuNi0zLjYtMC4zLTcuMy0wLjItMTEgMC41bC0xMTQgMjEuNGMtNi45IDEuMy0xMy45IDEuOS0yMC45IDEuOUg0MzkuMmMtNyAwLTE0LTAuNy0yMC45LTEuOWwtMTE0LTIxLjRjLTMuNy0wLjctNy40LTAuOS0xMS0wLjUtMjkuNiAyLjgtNTUuMyAyMi42LTY1LjUgNTAuNkwxMTQuMiA3MzVjLTcuMSAxOS40LTYuMiA0MC41IDIuNiA1OS4yIDguNyAxOC43IDI0LjMgMzMgNDMuNyA0MCAzNi4yIDEzLjIgNzcuMS0yLjYgOTUtMzYuOGw0NS04NS44YzE2LjktMzIgNTAtNTIgODYuMy01MnoiLz48cGF0aCBmaWxsPSIjNEE5MTlCIiBkPSJNNjkzLjQgNDgxLjJjLTE4LjMgMC0zMy4yLTE0LjktMzMuMi0zMy4yczE0LjktMzMuMiAzMy4yLTMzLjIgMzMuMiAxNC45IDMzLjIgMzMuMi0xNC45IDMzLjItMzMuMiAzMy4yeiBtMC00Ni41Yy03LjMgMC0xMy4yIDUuOS0xMy4yIDEzLjIgMCA3LjMgNS45IDEzLjIgMTMuMiAxMy4yczEzLjItNS45IDEzLjItMTMuMmMwLTcuMi01LjktMTMuMi0xMy4yLTEzLjJ6TTc1Ni40IDU0NC4yYy0xOC4zIDAtMzMuMi0xNC45LTMzLjItMzMuMnMxNC45LTMzLjIgMzMuMi0zMy4yIDMzLjIgMTQuOSAzMy4yIDMzLjItMTQuOCAzMy4yLTMzLjIgMzMuMnogbTAtNDYuNGMtNy4zIDAtMTMuMiA1LjktMTMuMiAxMy4yIDAgNy4zIDUuOSAxMy4yIDEzLjIgMTMuMnMxMy4yLTUuOSAxMy4yLTEzLjJjMC4xLTcuMy01LjktMTMuMi0xMy4yLTEzLjJ6TTYzMC40IDU0NC4yYy0xOC4zIDAtMzMuMi0xNC45LTMzLjItMzMuMnMxNC45LTMzLjIgMzMuMi0zMy4yIDMzLjIgMTQuOSAzMy4yIDMzLjItMTQuOSAzMy4yLTMzLjIgMzMuMnogbTAtNDYuNGMtNy4zIDAtMTMuMiA1LjktMTMuMiAxMy4yIDAgNy4zIDUuOSAxMy4yIDEzLjIgMTMuMnMxMy4yLTUuOSAxMy4yLTEzLjJjMC03LjMtNS45LTEzLjItMTMuMi0xMy4yek02OTMuNCA2MDcuM2MtMTguMyAwLTMzLjItMTQuOS0zMy4yLTMzLjJzMTQuOS0zMy4yIDMzLjItMzMuMiAzMy4yIDE0LjkgMzMuMiAzMy4yLTE0LjkgMzMuMi0zMy4yIDMzLjJ6IG0wLTQ2LjVjLTcuMyAwLTEzLjIgNS45LTEzLjIgMTMuMiAwIDcuMyA1LjkgMTMuMiAxMy4yIDEzLjJzMTMuMi01LjkgMTMuMi0xMy4yYzAtNy4zLTUuOS0xMy4yLTEzLjItMTMuMnpNNTgzLjYgMzk2LjFjLTUuNSAwLTEwLTQuNS0xMC0xMHYtMjEuMkg0NDhWMzg2YzAgNS41LTQuNSAxMC0xMCAxMHMtMTAtNC41LTEwLTEwdi0yMS4yYzAtMTEgOS0yMCAyMC0yMGgxMjUuNmMxMSAwIDIwIDkgMjAgMjBWMzg2YzAgNS42LTQuNSAxMC4xLTEwIDEwLjF6Ii8+PHBhdGggZmlsbD0iIzRBOTE5QiIgZD0iTTM4NiA2MDguM2gtNjAuOGMtMTAuNCAwLTE4LjktOC41LTE4LjktMTguOXYtMjcuN2gtMjcuN2MtMTAuNCAwLTE4LjktOC41LTE4LjktMTguOVY0ODJjMC0xMC40IDguNS0xOC45IDE4LjktMTguOWgyNy43di0yNy43YzAtMTAuNCA4LjUtMTguOSAxOC45LTE4LjlIMzg2YzEwLjQgMCAxOC45IDguNSAxOC45IDE4Ljl2MjcuN2gyNy43YzEwLjQgMCAxOC45IDguNSAxOC45IDE4Ljl2NjAuOGMwIDEwLjQtOC41IDE4LjktMTguOSAxOC45aC0yNy43djI3LjdjMCAxMC40LTguNSAxOC45LTE4LjkgMTguOXogbS01OS43LTIwaDU4LjV2LTI3LjdjMC0xMC40IDguNS0xOC45IDE4LjktMTguOWgyNy43di01OC41aC0yNy43Yy0xMC40IDAtMTguOS04LjUtMTguOS0xOC45di0yNy43aC01OC41djI3LjdjMCAxMC40LTguNSAxOC45LTE4LjkgMTguOWgtMjcuN3Y1OC41aDI3LjdjMTAuNCAwIDE4LjkgOC41IDE4LjkgMTguOXYyNy43eiBtMTA2LjMtMTA1LjF6Ii8+PC9zdmc+;" parent="1" vertex="1">
          <mxGeometry x="300" y="138" width="128" height="128" as="geometry" />
        </mxCell>
        <mxCell id="XesL2w0taDe7yGw5XreT-13" value="&lt;span style=&quot;font-size: 44px;&quot;&gt;&lt;font color=&quot;#6db5a8&quot;&gt;fd句柄&lt;/font&gt;&lt;/span&gt;" style="text;html=1;strokeColor=none;fillColor=none;align=center;verticalAlign=middle;whiteSpace=wrap;rounded=0;dashed=1;strokeWidth=5;fontSize=34;" parent="1" vertex="1">
          <mxGeometry x="297" y="121" width="138" height="30" as="geometry" />
        </mxCell>
        <mxCell id="XesL2w0taDe7yGw5XreT-14" value="&lt;span style=&quot;font-size: 44px;&quot;&gt;&lt;font color=&quot;#6db5a8&quot;&gt;用户空间&lt;/font&gt;&lt;/span&gt;" style="text;html=1;strokeColor=none;fillColor=none;align=center;verticalAlign=middle;whiteSpace=wrap;rounded=0;dashed=1;strokeWidth=5;fontSize=34;" parent="1" vertex="1">
          <mxGeometry x="618" y="260" width="194" height="30" as="geometry" />
        </mxCell>
        <mxCell id="XesL2w0taDe7yGw5XreT-15" value="&lt;span style=&quot;font-size: 44px;&quot;&gt;&lt;font color=&quot;#4a919b&quot;&gt;内核空间&lt;/font&gt;&lt;/span&gt;" style="text;html=1;strokeColor=none;fillColor=none;align=center;verticalAlign=middle;whiteSpace=wrap;rounded=0;dashed=1;strokeWidth=5;fontSize=34;" parent="1" vertex="1">
          <mxGeometry x="618" y="395" width="194" height="30" as="geometry" />
        </mxCell>
      </root>
    </mxGraphModel>
  </diagram>
</mxfile>
